# xmcd CD database file
#
# Track frame offsets:
#	150
#	15108
#	29742
#	41477
#	55507
#	68580
#	81461
#	95020
#	108396
#	121373
#	134648
#	147237
#	160112
#	172604
#	183207
#	196351
#	206586
#	221101
#	235065
#	248812
#	261259
#	273312
#	286450
#	300823
#
# Disc length: 4171 seconds
#
# Revision: 0
# Processed by: cddbd v1.5.2PL0 Copyright (c) Steve Scherf et al.
# Submitted via: CDex 1.70beta2
#
DISCID=4f104918
DTITLE=Dizzy Gillespie - Bebop Story Vol. 2 1946 CD 017
DYEAR=2008
DGENRE=Jazz
TTITLE0=Night And Day
TTITLE1=Weeping Willie
TTITLE2=Everytime I Think Of You
TTITLE3=Baranco Boogie
TTITLE4=Confirmation
TTITLE5=Diggin' For Diz
TTITLE6=Dynamo A
TTITLE7=Dynamo B
TTITLE8=When I Go Too Old To Dream
TTITLE9=When I Go Too Old To Dream
TTITLE10='Round Midnight
TTITLE11='Round Midnight
TTITLE12=Way You Look Tonight
TTITLE13=Why Do I Love You
TTITLE14=Who
TTITLE15=All The Things You Are
TTITLE16=52nd Street Theme
TTITLE17=52nd Street Theme
TTITLE18=A Night In Tunesia
TTITLE19=Ol' Man Rebop
TTITLE20=Anthropology
TTITLE21=All Too Soon
TTITLE22=You're Only Happy Whem I'm Blue
TTITLE23=Ten Lessons With TImothy
EXTD=YEAR: 2008
EXTT0=
EXTT1=
EXTT2=
EXTT3=
EXTT4=
EXTT5=
EXTT6=
EXTT7=
EXTT8=
EXTT9=
EXTT10=
EXTT11=
EXTT12=
EXTT13=
EXTT14=
EXTT15=
EXTT16=
EXTT17=
EXTT18=
EXTT19=
EXTT20=
EXTT21=
EXTT22=
EXTT23=
PLAYORDER=
